<?xml version="1.0" encoding="UTF-8"?>
<svg id="Calque_1" data-name="Calque 1" xmlns="http://www.w3.org/2000/svg" viewBox="0 0 2414 1817">
  <defs>
    <style>
      .cls-1 {
        fill: none;
        stroke: #0711a8;
        stroke-width: 42;
        stroke-linecap: round;
        stroke-linejoin: round;
        stroke-miterlimit: 10;
      }
    </style>
  </defs>
  <path class="cls-1" d="M429.59,650.59c37.61-3.83,75.32,3.26,107.47,23.36,14.47,9.04,26.1,21.79,39.67,31.91,54.27-61.18,146.92-75.21,215.54-29.12,11.23,7.54,19.67,17.27,30.46,25.12,66.36-71.9,183.92-69.13,246.27,6.11,62.97-77.83,184.82-76.8,250-2,49.5-61.16,143.76-73.46,210.05-32.02,14.47,9.04,26.1,21.79,39.67,31.91,54.27-61.18,146.92-75.21,215.54-29.12,11.23,7.54,19.67,17.27,30.46,25.12,68.01-72.35,183.75-69.44,247.22,7.2,48.97,59.13,48.96,148.76,0,207.88-63.45,76.62-179.42,79.6-247.22,7.2-19.97,18.1-38.01,32.54-63.69,41.89-57.84,21.06-116.5,10.16-163.98-28.1-3.82-3.08-16.55-18.36-19.78-17.8-64.59,73.83-185.23,76.1-248.27-.11-64.93,75.18-187.25,75.66-250-2-62.29,75.21-180.12,78.07-246.27,6.11-19.97,18.1-38.01,32.54-63.69,41.89-57.84,21.06-116.5,10.16-163.98-28.1-3.82-3.08-16.55-18.36-19.78-17.8-72.54,81.56-204.3,73.83-263.33-19.09-63.41-99.8-.5-238.45,117.64-250.47ZM432.68,893.32c-2.67-2.54-6.96-11.12-8.12-14.88-7.14-23.22-7.82-113.68,1.4-135.48,5.57-13.17,16.49-22.02,30.79-14.7,19.34,9.91,13.47,50.43,27.14,54.85,7.94,2.57,20.27.2,29.09.91,16.55,1.32,33.27,3.64,49.77,5.39,18.53-1.97-4.47-37.71-9.92-45.24-57.43-79.43-151.94-78.55-209.67,0-80.66,109.75,66.53,252.49,173.78,171.78,22.38-16.84,53.85-48.55,52.18-78.08l-4.12-1.87-85.53,5.99c-6.44,3.55-4.3,46.39-22.96,55.55-7.31,3.59-17.94,1.4-23.84-4.21ZM693.59,686.59c-139.07,14.33-151.91,217.96-15.56,246.49,3.89-2.76-1.71-27.88-2.01-34.1-.24-4.94-1.55-34.96,2.98-34.94,14.29,11.58,30,66.91,43.04,72.93,13.09,6.04,57.69-17.67,68.92-27.01,26.34-21.9,11.66-37.84,2.98-64.88.35-3.5,13.63-16.06,16.89-21.25,27.45-43.84-4.65-92.16-41-118.65-24.7-18-45.59-21.74-76.24-18.59ZM969.51,908.45c10.46,9.32-13.35,35.85,25.21,19.26,78.25-33.67,63.27-101.61,35-166.43-5.35-12.28-28.85-60.77-37.87-66.13-20.19-12-87.2-12.93-104.86,2.82-6.74,6.01-20.83,36.74-25.33,46.67-21.39,47.17-49.11,123.69-3.67,164.38,13.02,11.66,34.44,24.2,52.02,24.98.12-8.37-2.39-21.79,7.88-25.12,4.48-1.45,49.69-2.15,51.63-.43ZM1221.71,745.7c-2.53,1.09-5.94,2.62-8.66,2.34-11.03-1.15-28.36-53.47-40.4-59.86-6.62-3.51-29.89,6.47-37.36,10.1-75.28,36.52-94.78,137.47-38.3,199.74,11.05,12.18,53.99,40.97,69.67,35.69,8.7-2.93,1.71-28.93,1.37-36.73s-2.74-32.37,5.38-34.69l7.58,1.74,44.27,71.59c89.83-24.59,122.92-136.88,61.77-207.65-14.5-16.78-42.48-37.16-65.16-35.1-5.85,4.09,3.37,43.86-.15,52.82ZM1555.77,759.79c2.37-4.46,1.75-6.28.08-10.5-13.03-32.81-59.23-59.48-93.09-63.04-106.62-11.23-178.8,99.65-124.36,192.36,43.66,74.36,160.76,82.53,209.24,10.02,4.63-6.93,17.23-23.03,3.79-26.18-14.59,4.18-29.68,7.18-44.71,9.27-8.69,1.21-41.21,5.68-47.31,3.87-13.94-4.15-13.72-35.43,3.49-37.68,18.14-2.37,41.56-.75,60.18-1.82,7.31-.42,43.47-5.87,46.65-3.81,16.82,71.66,106.13,135.72,176.91,93.38,31.8-19.02,67.73-56.32,75.38-93.63l12.92,38.04c16.53,33.82,44.82,53.3,80.47,63.64l4.48-2.89-6.07-61.81c1.14-8.25,3.93-9.53,8.57-2.39,12.66,19.48,21.67,44.39,32.92,64.86,8.88,12.29,28.01,3.24,39.72-1.41,13.04-5.18,43.9-21.82,48.89-35.1,5.8-15.41-6.2-34.97-9.96-49.82,6.76-14.41,20.65-20.85,24.65-37.49,13.62-56.62-46.88-119.24-101.54-121.73-67.41-3.07-123.6,38.79-133.12,106.1-3.18-.35-3.04-3-3.78-5.2-12.44-37.13-20.43-60.36-56.36-81.64-13.91-8.24-46.41-26.32-46.02,1.86.7,50.48,10.61,100.4,4.16,151.96-5.56,44.41-48.77,40.16-53.76-2.2-3.78-32.07-1.79-71.27-.2-103.76.55-11.28,7.56-51.18,2.17-58.2-11.37-9.31-31.19,3.77-42.02,10.35-19.98,12.15-34.55,27.82-45.21,48.79-6.26,12.3-8.84,25.34-13.95,38-1.87-1.38-4.11-3.21-6.42-3.54-33.66-4.79-68-3.87-101.73-8.27-12.84-4.6-9.89-21.24-6.57-31.86,34.51-2.54,67.75,7.07,101.48,11.51Z"/>
  <path class="cls-1" d="M692,1180c-.45-8.28.6-16.8.08-25.08-2.13-34.32-6.49-91-2.17-124.01.93-7.11,3.7-9.29,10.98-9.02,50.11,3.82,106.8-4.74,156.1.13,32.78,3.24,49.87,32.11,30.68,60.65-4.11,6.11-8.3,7.3-12.39,11.17-1.68,1.59-1.84,1.36-1.27,4.14,38.7,8.52,38.97,63.62,4.73,77.77-2.1.87-10.68,4.26-11.74,4.26h-175ZM774,1082h29c8.56,0,12.36-19.97,5.97-25.97-6.06-6.28-26.78-4.53-34.97-2.03v28ZM776,1150h29c4.25,0,11.94-11.19,12.66-15.51,3.71-22.54-25.75-25.87-41.66-20.49v36Z"/>
  <path class="cls-1" d="M1001.52,1022.52c27.64-3.74,99.07-3.3,127.46-.5,34.14,3.37,46.78,27.33,49.1,58.9,2.69,36.69,1.65,82.91-40.09,96.06-19.64,6.19-108.82,5.01-132.95,2.98-27.72-2.32-45.1-14.49-52.04-41.96-11.03-43.62-6.62-108.03,48.53-115.5ZM1055.46,1050.47c-8.13,1.67-14.09,8.54-15.33,16.66-1.77,11.61-1.64,49.95-.18,61.92,3.69,30.16,41.19,33.36,47.16,5.06,2.52-11.97,2.17-48.16.86-61.08-1.93-19.11-13.65-26.43-32.51-22.56Z"/>
  <path class="cls-1" d="M1688,1066h-77c-5.67,0-8.5-11.53-11.88-14.11-5.83-4.44-25.04-3.71-27.78,2.56-5.55,12.69,1.63,18.57,13.56,19.65,27.82,2.52,84.33-7.09,104.15,15.85,15.72,18.19,10.82,67.1-9.68,80.44-3.54,2.31-11.19,5.83-15.26,6.74-26.97,6.03-125.14,5.79-152.65.41-18.05-3.53-30.11-24.78-28.32-41.74,3.17-1.18,6.37-1.64,9.76-1.88,16.7-1.19,56.49-2.18,71.97.21,13.8,2.14,8.61,17.96,26.13,17.92,21.74-.06,26.21-23.86,5.52-27.56-30.59-5.47-90.38,11.79-108.94-21.06-13.51-23.91-6.77-62.81,19.01-75.83,21.69-10.95,110.86-9.66,138.38-7.57,30.73,2.34,45.49,12.98,43.02,45.98Z"/>
  <path class="cls-1" d="M1378,1180c-12.22,1.25-82.67,5.12-87.52-.5-5.66-15.81-.48-34.45-2.44-50.55-2.3-18.87-61.14-77.71-74.94-99.06-10.53-16.3,8.12-8.12,17.8-7.8,24.64.81,49.06-1.63,73.62-1.62,16.81,3.05,20.81,29.62,28.47,29.66,5.19.03,7.22-10.08,10.13-14,19.36-26.06,57.35-13.1,85.97-14.03,7.71-.25,15.07-3.11,22.89-2.08,1.77,1.56-6.75,14.31-8.33,16.65-8.72,12.91-65.66,82.84-65.66,90.34v53Z"/>
  <path class="cls-1" d="M2107.58,648.43c48.64-4.89,53.63,71.04,5.34,73.66-48,2.61-52.57-68.91-5.34-73.66ZM2105.49,656.47c-32.24,5.09-30.11,53.33-.31,57.34,46.57,6.27,45.22-64.44.31-57.34Z"/>
  <path class="cls-1" d="M1916.42,734.4c9.58-2.13,20.3-3.72,30.11-1.93,30.3,5.55,26.36,69.29-15.52,65.62-23.91-2.09-21.33-47.34-14.58-63.69Z"/>
  <path class="cls-1" d="M685.48,732.48c29.94-5.53,45.02,10.79,40.38,40.39-3.55,22.62-42.2,39.06-51.3,9.55-4.13-13.4-6.16-46.79,10.91-49.94Z"/>
  <path class="cls-1" d="M924,850c-3.21-3.2,9.66-71.22,13.23-72.09l6.67.18,14.1,71.92h-34Z"/>
  <path class="cls-1" d="M2094,666c7,1.07,23.86-2.71,28.19,2.8s2.67,14.39-4.18,16.18c1.08,3.04,16.6,17.29,6.95,19.03-11.6,2.09-6.95-12.51-17.97-15.97-5.01,3.84-2.55,10.55-3,15.96l-9.99-3.01v-35ZM2114.01,681.99l-1.89-9.11-8.11-.89-.02,10.02,10.02-.02Z"/>
</svg>
